<svg xmlns="http://www.w3.org/2000/svg" width="32.569" height="28" viewBox="0 0 32.569 28"><defs><style>
      .cls-1 {
        fill: #fff;
      }
    </style></defs><g id="money_copy" data-name="money copy" transform="translate(0 -28.588)"><g id="Group_3239" data-name="Group 3239" transform="translate(0 28.588)"><g id="Group_3238" data-name="Group 3238" transform="translate(0 0)"><path id="Path_3364" data-name="Path 3364" class="cls-1" d="M32.524,44.432h0l-6.149-15.44a.639.639,0,0,0-.83-.358h0L.6,38.568a.626.626,0,0,0-.256.2A.632.632,0,0,0,0,39.326V55.949a.639.639,0,0,0,.639.639H27.492a.639.639,0,0,0,.639-.639V46.87l4.036-1.607A.639.639,0,0,0,32.524,44.432ZM26.853,55.31H1.279V39.965H26.853ZM10.668,38.69l10.705-4.266A5.087,5.087,0,0,0,25.038,36l1.068,2.685ZM28.131,45.5V39.326a.639.639,0,0,0-.639-.639h-.01l-1.355-3.4a.53.53,0,0,0-.052-.081.632.632,0,0,0-.668-.492,3.823,3.823,0,0,1-3.352-1.444.634.634,0,0,0-.82-.143.719.719,0,0,0-.09.017l-13.07,5.2a.632.632,0,0,0-.351.341H3.754l21.669-8.628L31.1,44.313Z" transform="translate(0 -28.588)"></path><path id="Path_3365" data-name="Path 3365" class="cls-1" d="M32.456,196.694a3.823,3.823,0,0,1,2.581,2.578.639.639,0,0,0,.612.456.585.585,0,0,0,.1-.015.593.593,0,0,0,.088.018H51.18a.551.551,0,0,0,.078-.016.6.6,0,0,0,.719-.438v0a3.822,3.822,0,0,1,2.581-2.581.631.631,0,0,0,.439-.7.645.645,0,0,0,.019-.095v-5.115a.578.578,0,0,0-.019-.095.63.63,0,0,0-.439-.7,3.819,3.819,0,0,1-2.58-2.582.632.632,0,0,0-.708-.439.607.607,0,0,0-.09-.018H35.836a.6.6,0,0,0-.1.019.632.632,0,0,0-.7.439,3.823,3.823,0,0,1-2.581,2.58.631.631,0,0,0-.439.7.645.645,0,0,0-.018.095V195.9a.59.59,0,0,0,.018.089A.633.633,0,0,0,32.456,196.694Zm.822-5.654a5.073,5.073,0,0,0,2.817-2.817H50.92a5.075,5.075,0,0,0,2.818,2.817v4.6a5.079,5.079,0,0,0-2.817,2.817H36.1a5.079,5.079,0,0,0-2.817-2.817Z" transform="translate(-29.443 -174.289)"></path><path id="Path_3366" data-name="Path 3366" class="cls-1" d="M131.836,226.617A3.836,3.836,0,1,0,128,222.781,3.836,3.836,0,0,0,131.836,226.617Zm0-6.393a2.557,2.557,0,1,1-2.557,2.557A2.557,2.557,0,0,1,131.836,220.224Z" transform="translate(-117.77 -203.732)"></path><path id="Path_3367" data-name="Path 3367" class="cls-1" d="M76.959,256.863A.959.959,0,1,0,76,255.9.959.959,0,0,0,76.959,256.863Zm0-1.279a.32.32,0,1,1-.32.32A.32.32,0,0,1,76.959,255.584Z" transform="translate(-69.926 -236.855)"></path><path id="Path_3368" data-name="Path 3368" class="cls-1" d="M252.959,256.863A.959.959,0,1,0,252,255.9.959.959,0,0,0,252.959,256.863Zm0-1.279a.32.32,0,1,1-.32.32A.32.32,0,0,1,252.959,255.584Z" transform="translate(-231.861 -236.855)"></path></g></g></g></svg>