<svg xmlns="http://www.w3.org/2000/svg" width="29.383" height="29.383" viewBox="0 0 29.383 29.383"><defs><style>
      .cls-1 {
        fill: #f3386a;
      }
    </style></defs><path id="Path_65" data-name="Path 65" class="cls-1" d="M321.851,175.412A14.691,14.691,0,1,0,336.542,190.1,14.691,14.691,0,0,0,321.851,175.412Zm4.9,19.206-10.294,4.511a.72.72,0,0,1-1.009-.659v-5.608a.7.7,0,0,1,.42-.644l3.09-1.354c.008,0,.872.392,2.069.943a.092.092,0,0,1,0,.167l-3.476,1.511a.166.166,0,0,0-.1.153v2.751a.167.167,0,0,0,.232.153l7-3.045,2.068.957A.09.09,0,0,1,326.753,194.618Zm4.412-5.153a.09.09,0,0,1-.125.082l-13.353-5.806a.166.166,0,0,0-.232.153v2.75a.166.166,0,0,0,.1.153l13.421,5.836a.089.089,0,0,1,0,.164l-2.1.9a.183.183,0,0,1-.146,0l-12.86-5.636a.7.7,0,0,1-.42-.644v-5.608a.72.72,0,0,1,1.009-.659l14.276,6.256a.718.718,0,0,1,.43.657Z" transform="translate(-307.159 -175.412)"></path></svg>