<svg xmlns="http://www.w3.org/2000/svg" width="35.133" height="35.133" viewBox="0 0 35.133 35.133"><path id="Path_65" data-name="Path 65" d="M324.726,175.412a17.567,17.567,0,1,0,17.566,17.566A17.567,17.567,0,0,0,324.726,175.412Zm5.862,22.965-12.308,5.394a.861.861,0,0,1-1.206-.788v-6.705a.842.842,0,0,1,.5-.77l3.7-1.619c.01,0,1.042.469,2.474,1.128a.11.11,0,0,1,0,.2l-4.156,1.807a.2.2,0,0,0-.12.182V200.5a.2.2,0,0,0,.278.182l8.373-3.641,2.473,1.144A.107.107,0,0,1,330.588,198.377Zm5.275-6.162a.107.107,0,0,1-.15.1l-15.967-6.942a.2.2,0,0,0-.278.182v3.288a.2.2,0,0,0,.12.182L335.636,196a.107.107,0,0,1,0,.2l-2.509,1.081a.219.219,0,0,1-.175,0l-15.376-6.739a.841.841,0,0,1-.5-.77v-6.705a.861.861,0,0,1,1.206-.788l17.07,7.481a.859.859,0,0,1,.514.786Z" transform="translate(-307.159 -175.412)" fill="#fff"></path></svg>