<svg xmlns="http://www.w3.org/2000/svg" width="33.007" height="30.153" viewBox="0 0 33.007 30.153"><g id="ROBIN_LOGO_01-07" transform="translate(-41.94 -41.74)"><path id="Path_1931" data-name="Path 1931" d="M58.706,71.706l-11.7-13.042a.616.616,0,0,1,.458-1.021H58.451a5.854,5.854,0,0,0,5.954-6.119c0-2.628-1.569-5.444-5.954-5.444h-15.9a.616.616,0,0,1-.616-.608V42.348a.616.616,0,0,1,.616-.608h15.9c7.065,0,10.286,5.068,10.294,9.761,0,5.061-3.6,10.452-10.286,10.474H55.815l7.944,8.9a.616.616,0,0,1-.458,1.021H59.134A.608.608,0,0,1,58.706,71.706Z" fill="#fff"></path><circle id="Ellipse_1008" data-name="Ellipse 1008" cx="3.101" cy="3.101" r="3.101" transform="translate(68.745 65.511)" fill="#fff"></circle></g></svg>