<svg xmlns="http://www.w3.org/2000/svg" id="Solid" width="15.888" height="23.038" viewBox="0 0 15.888 23.038"><defs><style>
      .cls-1 {
        fill: #fff;
      }
    </style></defs><path id="Path_3302" data-name="Path 3302" class="cls-1" d="M150.476,352a2.313,2.313,0,0,1-1.624,1.2c-2.237.7-3.621,1.689-3.889,2.768h11.026c-.268-1.079-1.652-2.072-3.889-2.768A2.313,2.313,0,0,1,150.476,352Z" transform="translate(-142.532 -335.715)"></path><path id="Path_3303" data-name="Path 3303" class="cls-1" d="M160.1,128a8.888,8.888,0,0,0,3.137,3.3,3.6,3.6,0,0,1,1.624,2.473,3.6,3.6,0,0,1,1.624-2.473,8.888,8.888,0,0,0,3.137-3.3Z" transform="translate(-156.917 -122.836)"></path><path id="Path_3304" data-name="Path 3304" class="cls-1" d="M106.424,33.806a9.4,9.4,0,0,0,4.67-7.82h0a.794.794,0,0,0,.794-.794V24H96v1.142a.843.843,0,0,0,.794.842v0a9.4,9.4,0,0,0,4.67,7.82,2.034,2.034,0,0,1,0,3.425,9.4,9.4,0,0,0-4.67,7.82v0A.843.843,0,0,0,96,45.9v1.142h15.888V45.846a.794.794,0,0,0-.794-.794h0a9.4,9.4,0,0,0-4.67-7.82A2.034,2.034,0,0,1,106.424,33.806Zm-1.731,1.713A2.814,2.814,0,0,0,106,37.9a8.578,8.578,0,0,1,4.3,7.151H97.589a8.578,8.578,0,0,1,4.3-7.151,2.828,2.828,0,0,0,0-4.764,8.578,8.578,0,0,1-4.3-7.151H110.3a8.578,8.578,0,0,1-4.3,7.151A2.814,2.814,0,0,0,104.693,35.519Z" transform="translate(-96 -24)"></path><path id="Path_3305" data-name="Path 3305" class="cls-1" d="M248.872,265.641a.372.372,0,0,0,.372-.372v-.4a.372.372,0,1,0-.745,0v.4A.372.372,0,0,0,248.872,265.641Z" transform="translate(-240.928 -252.559)"></path><path id="Path_3306" data-name="Path 3306" class="cls-1" d="M248.5,305.269a.372.372,0,0,0,.745,0v-.4a.372.372,0,0,0-.745,0Z" transform="translate(-240.928 -290.573)"></path></svg>