<svg xmlns="http://www.w3.org/2000/svg" width="23.001" height="23" viewBox="0 0 23.001 23"><defs><style>
      .cls-1 {
        fill: #fff;
      }
    </style></defs><path id="stock-exchange-app" class="cls-1" d="M23,11.426v4a.9.9,0,0,1-1.8,0V13.65l-2.859,2.859a.9.9,0,0,1-.635.263H13.176L7.194,22.754a.9.9,0,0,1-1.271-1.271l6.244-6.244a.9.9,0,0,1,.635-.263h4.534l2.65-2.65H18.059a.9.9,0,0,1,0-1.8H22.1A.9.9,0,0,1,23,11.426Zm-.9,6.694a.9.9,0,0,0-.9.9v3.1a.9.9,0,0,0,1.8,0v-3.1A.9.9,0,0,0,22.1,18.12Zm-3.594,0a.9.9,0,0,0-.9.9v3.1a.9.9,0,0,0,1.8,0v-3.1A.9.9,0,0,0,18.509,18.12Zm-3.594,0a.9.9,0,0,0-.9.9v3.1a.9.9,0,0,0,1.8,0v-3.1A.9.9,0,0,0,14.915,18.12Zm-3.594,2.74a.9.9,0,0,0-.9.9v.359a.9.9,0,0,0,1.8,0v-.359A.9.9,0,0,0,11.321,20.86ZM9.479,15.245a.9.9,0,0,0,.9-.9v-.552a2.7,2.7,0,0,0-.9-5.243.9.9,0,0,1,0-1.791.826.826,0,0,1,.79.524.9.9,0,1,0,1.654-.7,2.62,2.62,0,0,0-1.546-1.468V4.508a.9.9,0,0,0-1.8,0v.61a2.7,2.7,0,0,0,.9,5.23.9.9,0,0,1,0,1.8.955.955,0,0,1-.843-.554A.9.9,0,0,0,7,12.334a2.777,2.777,0,0,0,1.583,1.455v.557A.9.9,0,0,0,9.479,15.245Zm-3.1,3.076A.9.9,0,0,0,6.7,16.583,7.638,7.638,0,1,1,16.956,8.122a.9.9,0,1,0,1.77-.31A9.435,9.435,0,1,0,6.058,18.261a.9.9,0,0,0,.321.06Z" transform="translate(0 -0.017)"></path></svg>