<svg xmlns:xlink="http://www.w3.org/1999/xlink" xmlns="http://www.w3.org/2000/svg" id="Outline" width="25.032" height="30.038" viewBox="0 0 25.032 30.038"><defs></defs><path id="Path_3307" data-name="Path 3307" class="cls-1" d="M28.5,15.009A3.5,3.5,0,1,0,25,11.5a3.5,3.5,0,0,0,3.5,3.5ZM28.5,9A2.5,2.5,0,1,1,26,11.5,2.5,2.5,0,0,1,28.5,9Z" transform="translate(-15.989 -4.996)" fill="#FFFFFF"></path><path id="Path_3308" data-name="Path 3308" class="cls-1" d="M28.5,32.009A3.5,3.5,0,1,0,25,28.5a3.5,3.5,0,0,0,3.5,3.5ZM28.5,26A2.5,2.5,0,1,1,26,28.5,2.5,2.5,0,0,1,28.5,26Z" transform="translate(-15.989 -13.485)" fill="#FFFFFF"></path><path id="Path_3309" data-name="Path 3309" class="cls-1" d="M28.5,49.009A3.5,3.5,0,1,0,25,45.5a3.5,3.5,0,0,0,3.5,3.5ZM28.5,43A2.5,2.5,0,1,1,26,45.5,2.5,2.5,0,0,1,28.5,43Z" transform="translate(-15.989 -21.975)" fill="#FFFFFF"></path><path id="Path_3310" data-name="Path 3310" class="cls-1" d="M31.69,7.481a.5.5,0,0,0,.342-.475V5.5a.5.5,0,0,0-.5-.5H26.024V2.5a.5.5,0,0,0-.5-.5H13.508a.5.5,0,0,0-.5.5V5H7.5a.5.5,0,0,0-.5.5v1.5a.5.5,0,0,0,.342.475c.043.015,4.235,1.455,5.666,4.647v1.386H7.5a.5.5,0,0,0-.5.5v1.5a.5.5,0,0,0,.342.475c.043.015,4.235,1.455,5.666,4.647v1.386H7.5a.5.5,0,0,0-.5.5v1.5a.5.5,0,0,0,.342.475c.043.015,4.235,1.455,5.666,4.647v2.388a.5.5,0,0,0,.5.5H25.523a.5.5,0,0,0,.5-.5V29.15c1.43-3.193,5.623-4.633,5.666-4.647a.5.5,0,0,0,.342-.475v-1.5a.5.5,0,0,0-.5-.5H26.024V20.639c1.43-3.193,5.623-4.633,5.666-4.647a.5.5,0,0,0,.342-.475v-1.5a.5.5,0,0,0-.5-.5H26.024V12.128C27.454,8.936,31.647,7.5,31.69,7.481ZM31.03,6.005v.651a12.342,12.342,0,0,0-5.006,3.549v-4.2ZM8,6.656V6.005h5.006v4.2A12.342,12.342,0,0,0,8,6.656Zm0,8.511v-.651h5.006v4.2A12.342,12.342,0,0,0,8,15.167Zm0,8.511v-.651h5.006v4.2A12.342,12.342,0,0,0,8,23.677Zm17.022,7.359H14.009V3H25.023Zm6.008-8.01v.651a12.342,12.342,0,0,0-5.006,3.549v-4.2Zm0-8.511v.651a12.342,12.342,0,0,0-5.006,3.549v-4.2Z" transform="translate(-7 -2)" fill="#FFFFFF"></path></svg>