<svg xmlns:xlink="http://www.w3.org/1999/xlink" xmlns="http://www.w3.org/2000/svg" width="23.576" height="27.203" viewBox="0 0 23.576 27.203"><defs></defs><g id="chart" transform="translate(-0.5)" fill="#CAC1C1"><path id="Path_3373" data-name="Path 3373" class="cls-1" d="M114.767,104a.453.453,0,0,0-.453.453v2.267h-1.36a.453.453,0,0,0-.453.453v11.788a.453.453,0,0,0,.453.453h1.36v1.814a.453.453,0,0,0,.907,0v-1.814h1.36a.453.453,0,0,0,.453-.453V107.174a.453.453,0,0,0-.453-.453h-1.36v-2.267A.453.453,0,0,0,114.767,104Zm1.36,3.627v10.881h-2.72V107.627Zm0,0" transform="translate(-105.653 -98.106)" fill="#FFFFFF"></path><path id="Path_3374" data-name="Path 3374" class="cls-1" d="M226.767,72a.453.453,0,0,0-.453.453V74.72h-1.36a.453.453,0,0,0-.453.453V86.961a.453.453,0,0,0,.453.453h1.36v1.814a.453.453,0,1,0,.907,0V87.415h1.36a.453.453,0,0,0,.453-.453V75.174a.453.453,0,0,0-.453-.453h-1.36V72.453A.453.453,0,0,0,226.767,72Zm1.36,3.627V86.508h-2.72V75.627Zm0,0" transform="translate(-211.305 -67.92)" fill="#FFFFFF"></path><path id="Path_3375" data-name="Path 3375" class="cls-1" d="M338.767,168a.453.453,0,0,0-.453.453v2.267h-1.36a.453.453,0,0,0-.453.453v11.788a.453.453,0,0,0,.453.453h1.36v1.814a.453.453,0,1,0,.907,0v-1.814h1.36a.453.453,0,0,0,.453-.453V171.174a.453.453,0,0,0-.453-.453h-1.36v-2.267A.453.453,0,0,0,338.767,168Zm1.36,3.627v10.881h-2.72V171.627Zm0,0" transform="translate(-316.958 -158.479)" fill="#FFFFFF"></path><path id="Path_3376" data-name="Path 3376" class="cls-1" d="M2.767,0a.453.453,0,0,0-.453.453V2.72H.953A.453.453,0,0,0,.5,3.174V14.961a.453.453,0,0,0,.453.453h1.36v1.814a.453.453,0,1,0,.907,0V15.415H4.58a.453.453,0,0,0,.453-.453V3.174A.453.453,0,0,0,4.58,2.72H3.22V.453A.453.453,0,0,0,2.767,0Zm1.36,3.627V14.508H1.407V3.627Zm0,0" fill="#FFFFFF"></path></g></svg>