<svg xmlns:xlink="http://www.w3.org/1999/xlink" xmlns="http://www.w3.org/2000/svg" width="25" height="25" viewBox="0 0 25 25"><defs></defs><g id="magic-wand-auto-fix-button" transform="translate(0.001)" fill="#CAC1C1"><g id="auto-fix" transform="translate(-0.001)" fill="#CAC1C1"><path id="Path_3369" data-name="Path 3369" class="cls-1" d="M104.976,4.286l2.976,1.667-1.667-2.976L107.952,0l-2.976,1.667L102,0l1.667,2.976L102,5.952Z" transform="translate(-97.238)" fill="#FFFFFF"></path><path id="Path_3370" data-name="Path 3370" class="cls-1" d="M410.976,307.667,408,306l1.667,2.976L408,311.952l2.976-1.667,2.976,1.667-1.667-2.976L413.952,306Z" transform="translate(-388.952 -291.714)" fill="#FFFFFF"></path><path id="Path_3371" data-name="Path 3371" class="cls-1" d="M413.952,0l-2.976,1.667L408,0l1.667,2.976L408,5.952l2.976-1.667,2.976,1.667-1.667-2.976Z" transform="translate(-388.952)" fill="#FFFFFF"></path><path id="Path_3372" data-name="Path 3372" class="cls-1" d="M15.951,127.857a1.151,1.151,0,0,0-1.667,0L.356,141.786a1.151,1.151,0,0,0,0,1.667l2.738,2.738a1.151,1.151,0,0,0,1.667,0L18.69,132.262a1.151,1.151,0,0,0,0-1.667Zm-1.31,6.548-2.5-2.5L15,129.048l2.5,2.5Z" transform="translate(0.001 -121.548)" fill="#FFFFFF"></path></g></g></svg>