<svg xmlns:xlink="http://www.w3.org/1999/xlink" xmlns="http://www.w3.org/2000/svg" width="31.563" height="28" viewBox="0 0 31.563 28"><defs></defs><g id="cube" transform="translate(-7.997 -40)" fill="#CAC1C1"><path id="Path_3377" data-name="Path 3377" class="cls-1" d="M248,169.527a.509.509,0,0,0,1.018,0v-1.018a.509.509,0,0,0-1.018,0Z" transform="translate(-224.73 -119.855)" fill="#FFFFFF"></path><path id="Path_3378" data-name="Path 3378" class="cls-1" d="M248.509,208a.509.509,0,0,0-.509.509v1.018a.509.509,0,0,0,1.018,0v-1.018A.509.509,0,0,0,248.509,208Z" transform="translate(-224.73 -157.309)" fill="#FFFFFF"></path><path id="Path_3379" data-name="Path 3379" class="cls-1" d="M279.536,320.662l-.915-.447a.509.509,0,1,0-.447.915l.915.447a.509.509,0,1,0,.447-.915Z" transform="translate(-252.716 -262.334)" fill="#FFFFFF"></path><path id="Path_3380" data-name="Path 3380" class="cls-1" d="M315.484,338.211l-.915-.447a.509.509,0,1,0-.447.915l.915.447a.509.509,0,1,0,.447-.915Z" transform="translate(-286.377 -278.767)" fill="#FFFFFF"></path><path id="Path_3381" data-name="Path 3381" class="cls-1" d="M351.428,355.766l-.915-.447a.509.509,0,1,0-.447.915l.915.447a.509.509,0,0,0,.447-.915Z" transform="translate(-320.033 -295.205)" fill="#FFFFFF"></path><path id="Path_3382" data-name="Path 3382" class="cls-1" d="M39.28,64.49l-4.81-2.407V49.164a.51.51,0,0,0-.281-.456l-9.9-4.95V40.509a.509.509,0,0,0-1.018,0v3.249l-9.9,4.95a.51.51,0,0,0-.281.456V62.107L8.281,64.489a.509.509,0,0,0,.452.913l4.887-2.422,9.932,4.967a.512.512,0,0,0,.456,0l9.957-4.978L38.824,65.4a.5.5,0,0,0,.227.054.509.509,0,0,0,.228-.964ZM23.27,66.667l-8.508-4.254.543-.269a.509.509,0,1,0-.452-.912l-.746.37V49.987l9.164,4.582Zm.509-12.982-9.043-4.522L23.27,44.9v2.231a.509.509,0,1,0,1.018,0V44.9l8.534,4.267Zm9.673,7.888-.68-.34a.509.509,0,1,0-.456.911l.51.255-8.537,4.269v-12.1l9.164-4.582Z" transform="translate(0 0)" fill="#FFFFFF"></path><path id="Path_3383" data-name="Path 3383" class="cls-1" d="M205.233,321.628a.507.507,0,0,0,.223-.052l.915-.447a.509.509,0,1,0-.447-.915l-.915.447a.509.509,0,0,0,.224.967Z" transform="translate(-184.206 -262.334)" fill="#FFFFFF"></path><path id="Path_3384" data-name="Path 3384" class="cls-1" d="M169.284,339.177a.507.507,0,0,0,.223-.052l.915-.447a.509.509,0,1,0-.447-.915l-.915.447a.509.509,0,0,0,.224.967Z" transform="translate(-150.545 -278.767)" fill="#FFFFFF"></path><path id="Path_3385" data-name="Path 3385" class="cls-1" d="M133.34,356.728a.509.509,0,0,0,.223-.052l.915-.447a.509.509,0,1,0-.447-.915l-.915.447a.509.509,0,0,0,.224.967Z" transform="translate(-116.888 -295.201)" fill="#FFFFFF"></path></g></svg>