<svg xmlns:xlink="http://www.w3.org/1999/xlink" xmlns="http://www.w3.org/2000/svg" width="23" height="23" viewBox="0 0 16.188 18.5"><defs></defs><path id="Icon_awesome-percent" data-name="Icon awesome-percent" class="cls-1" d="M4.047,8.094A4.047,4.047,0,1,0,0,4.047,4.045,4.045,0,0,0,4.047,8.094Zm0-5.781A1.734,1.734,0,1,1,2.313,4.047,1.735,1.735,0,0,1,4.047,2.313Zm8.094,8.094a4.047,4.047,0,1,0,4.047,4.047A4.045,4.045,0,0,0,12.141,10.406Zm0,5.781a1.734,1.734,0,1,1,1.734-1.734A1.735,1.735,0,0,1,12.141,16.188ZM14.175.007l1.142,0a.867.867,0,0,1,.712,1.366L2.8,18.124a.865.865,0,0,1-.708.369l-1.207,0A.867.867,0,0,1,.17,17.131L13.467.376A.865.865,0,0,1,14.175.007Z" fill="#FFFFFF"></path></svg>